<svg width="214" height="230" fill="none" xmlns="http://www.w3.org/2000/svg"><g clip-path="url(#a)"><path d="m86.361 117.751 75.229 40.396-49.037 26.324L37.4 144.029l48.961-26.278Zm.001 0 75.229 40.396 12.061-51.436-75.153-40.442-12.137 51.482Z" stroke="#4D74AD" stroke-width=".879" stroke-miterlimit="10" stroke-linecap="round" stroke-linejoin="round"/><path d="m91.014 115.583 67.642 35.849 9.981-42.471-67.568-36.362-10.055 42.984Z" fill="url(#b)" stroke="#4D74AD" stroke-width=".879" stroke-miterlimit="10" stroke-linecap="round" stroke-linejoin="round"/><path d="m4.89 136.335 48.835-26.418v14.678" stroke="#4D74AD" stroke-width=".879" stroke-miterlimit="10" stroke-linecap="round" stroke-linejoin="round"/><path d="M118.999 74.954V12.653L4.777 73.497v77.562l84.08-45.129" stroke="#4D74AD" stroke-width=".879" stroke-miterlimit="10" stroke-linecap="round" stroke-linejoin="round"/><path fill-rule="evenodd" clip-rule="evenodd" d="M53.5 65.324V90.88l16.537-8.849v9.444L21.101 117.75v-9.478l9.968-5.246v-8.15l-17.39 9.339v-17.51l39.82-21.382Z" fill="url(#c)" stroke="#4D74AD" stroke-width=".879" stroke-miterlimit="10" stroke-linecap="round" stroke-linejoin="round"/><path fill-rule="evenodd" clip-rule="evenodd" d="M48.535 62.352c0-5.76-5.028-10.434-11.222-10.434-6.193 0-11.221 4.674-11.221 10.434 0 5.374 9.253 16.542 10.946 18.548.175.198.363.198.539 0 1.73-2.006 10.958-13.01 10.958-18.549Z" fill="url(#d)" stroke="#4D74AD" stroke-width=".879" stroke-miterlimit="10" stroke-linecap="round" stroke-linejoin="round"/><path d="M37.325 67.201c2.777 0 5.028-2.093 5.028-4.674 0-2.582-2.25-4.675-5.028-4.675-2.776 0-5.027 2.093-5.027 4.675 0 2.581 2.25 4.674 5.027 4.674Z" fill="#fff"/><path d="M70.038 38.93v17.523l8.062-4.337v13.092l24.575-12.813V21.42M28.474 68.939 4.777 81.704m65.261-35.149-22.28 11.973m47.268 23.561-.552.326c-4.476 2.565-8.112 3.731-8.112 3.731V61.128" stroke="#4D74AD" stroke-width=".879" stroke-miterlimit="10" stroke-linecap="round" stroke-linejoin="round"/><path d="M102.674 47.685s7.385.828 8.15 8.126c.564 5.281-.602 9.782-2.671 13.582-.025.047-.025.035-.05.093m-5.429-28.842s4.125.886 6.833 1.947c4.125 1.62 5.454-3.66 1.492-7.624-3.962-3.964-8.325-4.804-8.325-4.804m-16.312 77.119V96.603l5.279-2.494" stroke="#4D74AD" stroke-width=".879" stroke-miterlimit="10" stroke-linecap="round" stroke-linejoin="round"/><path d="m37.602 80.655 1.09-.583" stroke="#4D74AD" stroke-width=".879" stroke-linecap="round" stroke-linejoin="round"/><path d="M40.924 78.86 57.7 69.825" stroke="#4D74AD" stroke-width=".879" stroke-linecap="round" stroke-linejoin="round" stroke-dasharray="2.55 2.55"/><path d="m58.816 69.218 1.078-.583v1.166" stroke="#4D74AD" stroke-width=".879" stroke-linecap="round" stroke-linejoin="round"/><path d="M59.894 72.739v4.407" stroke="#4D74AD" stroke-width=".879" stroke-linecap="round" stroke-linejoin="round" stroke-dasharray="3.12 3.12"/><path d="M59.894 78.615v1.166l1.078-.607" stroke="#4D74AD" stroke-width=".879" stroke-linecap="round" stroke-linejoin="round"/><path d="m63.054 78.02 11.447-6.4" stroke="#4D74AD" stroke-width=".879" stroke-linecap="round" stroke-linejoin="round" stroke-dasharray="2.4 2.4"/><path d="m75.542 71.037 1.066-.607v1.166" stroke="#4D74AD" stroke-width=".879" stroke-linecap="round" stroke-linejoin="round"/><path d="M76.607 73.777v29.437" stroke="#4D74AD" stroke-width=".879" stroke-linecap="round" stroke-linejoin="round" stroke-dasharray="2.32 2.32"/><path d="M76.607 104.298v1.166l-1.09.582" stroke="#4D74AD" stroke-width=".879" stroke-linecap="round" stroke-linejoin="round"/><path d="m73.184 107.271-17.465 9.186" stroke="#4D74AD" stroke-width=".879" stroke-linecap="round" stroke-linejoin="round" stroke-dasharray="2.64 2.64"/><path d="m54.553 117.063-1.091.583" stroke="#4D74AD" stroke-width=".879" stroke-linecap="round" stroke-linejoin="round"/><path d="M53.462 121.086c2.043 0 3.699-1.54 3.699-3.44 0-1.899-1.656-3.439-3.699-3.439s-3.699 1.54-3.699 3.439c0 1.9 1.657 3.44 3.7 3.44Z" fill="url(#e)"/><path d="m4.777 113.193 7.824-4.197v17.522l-7.824 4.197m95.189-65.577 75.805 40.827-12.3 51.354-1.881 1.143v3.544l-48.923 26.277v-3.474m60.985-77.83 1.88-1.073M99.966 65.138l-1.68.956" stroke="#4D74AD" stroke-width=".879" stroke-miterlimit="10" stroke-linecap="round" stroke-linejoin="round"/><path d="m58.013 137.407 27.898-15.027 66.175 35.767-27.897 15.027-66.176-35.767Zm4.527 1.935 27.947-14.759m-23.459 17.126 27.947-14.759m-23.622 17.207 27.948-14.759m-23.458 17.126 27.947-14.759m-23.647 17.219 27.948-14.76M84.62 151.35l27.947-14.759m-23.61 17.207 27.947-14.759m-23.457 17.126 27.948-14.759m-23.423 17.102 27.947-14.759m-23.458 17.126 27.947-14.759M106.8 163.311l27.947-14.759m-23.472 17.126 27.948-14.759m-23.61 17.207 27.948-14.759m-23.471 17.126 27.947-14.759m-84.995-20.67 65.787 35.779m-70.715-33.436 65.787 35.779m-56.584-40.827 65.787 35.779m-61.361-38.39 65.787 35.779m-61.186-38.298 65.787 35.779m-61.073-38.239 65.787 35.779m-60.646-38.005 65.775 35.779m-39.319 29.95-75.516-40.536v-3.637m69.61-58.886 51.895 27.292M105.658 89.2l51.895 27.292M104.555 93.2l29.577 15.528m-33.552-.968 51.908 27.304M99.49 111.771l29.564 15.517m-25.553-30.195 51.895 27.303m-52.998-23.293 51.908 27.304m21.039 65.507c3.799 0 6.883-2.098 6.883-4.686 0-2.589-3.084-4.687-6.883-4.687s-6.884 2.098-6.884 4.687c0 2.588 3.085 4.686 6.884 4.686Z" stroke="#4D74AD" stroke-width=".879" stroke-miterlimit="10" stroke-linecap="round" stroke-linejoin="round"/><path d="M175.344 191.326c1.706 0 3.085-.933 3.085-2.098 0-1.155-1.379-2.099-3.085-2.099-1.705 0-3.084.933-3.084 2.099 0 1.154 1.379 2.098 3.084 2.098Z" fill="url(#f)" stroke="#4D74AD" stroke-width=".879" stroke-miterlimit="10" stroke-linecap="round" stroke-linejoin="round"/><path d="M47.632 217.23c3.801 0 6.883-2.098 6.883-4.686s-3.082-4.687-6.883-4.687c-3.802 0-6.884 2.099-6.884 4.687s3.082 4.686 6.884 4.686Z" stroke="#4D74AD" stroke-width=".879" stroke-miterlimit="10" stroke-linecap="round" stroke-linejoin="round"/><path d="M47.633 214.642c1.705 0 3.084-.932 3.084-2.098 0-1.154-1.38-2.099-3.084-2.099-1.706 0-3.085.933-3.085 2.099 0 1.166 1.38 2.098 3.084 2.098Z" fill="url(#g)" stroke="#4D74AD" stroke-width=".879" stroke-miterlimit="10" stroke-linecap="round" stroke-linejoin="round"/><path d="M21.09 142.303v9.035l84.957 45.607h.063c1.592.933 3.661 1.492 5.93 1.492 2.132 0 4.075-.501 5.63-1.329h.037l83.391-44.604v-.081c2.457-1.108 4.087-3.008 4.087-5.165 0-2.098-1.529-3.952-3.874-5.071v-.035l-30.079-16.17m-32.599-40.769.075-37.62-.075-.047c.201-2.542-.765-4.792-2.771-5.876-1.956-1.05-4.438-.735-6.658.583l-.037-.023-10.156 5.444" stroke="#4D74AD" stroke-width=".879" stroke-miterlimit="10" stroke-linecap="round" stroke-linejoin="round"/><path d="m180.749 186.325 24.374-13.081v-.082c2.457-1.107 4.087-3.007 4.087-5.164 0-2.099-1.529-3.952-3.874-5.071v-.035l-37.94-20.554m-114.51 67.116 9.09-4.873v-.081c2.457-1.108 4.087-3.008 4.087-5.165 0-2.098-1.53-3.952-3.874-5.071v-.035l-41.814-22.547v-.023c-1.944-1.143-3.16-2.822-3.16-4.699 0-1.935 1.304-3.66 3.348-4.803v-.011l23.183-12.393m88.255 26.289 12.413 6.669m-81.861-25.334 11.924-6.318 20.5 10.888-11.95 6.331m-16.274-13.127 20.312 10.993m-10.696-5.782-4.175 2.18M163.81 33.84c-2.411-1.294-5.906.139-7.807 3.2-1.901 3.061-1.487 6.592.923 7.886 2.411 1.294 5.906-.138 7.807-3.2 1.901-3.06 1.487-6.591-.923-7.886Z" stroke="#4D74AD" stroke-width=".879" stroke-miterlimit="10" stroke-linecap="round" stroke-linejoin="round"/><path d="M161.912 36.9c-1.079-.58-2.645.062-3.496 1.434-.852 1.371-.668 2.953.412 3.532 1.079.58 2.645-.062 3.496-1.434.852-1.372.668-2.953-.412-3.533Z" fill="url(#h)" stroke="#4D74AD" stroke-width=".879" stroke-miterlimit="10" stroke-linecap="round" stroke-linejoin="round"/><path d="m138.709 78.218 15.572-8.347.026-.046c1.667-.817 3.222-2.204 4.35-4.023 1.066-1.713 1.58-3.532 1.58-5.2l.025-.034.1-15.167m-29.069 132.027c.612.328 1.5-.038 1.985-.819.485-.781.382-1.68-.23-2.008-.611-.328-1.5.038-1.985.819-.485.78-.382 1.679.23 2.008ZM42.98 148.04c-.702.377-.822 1.405-.268 2.297.554.893 1.572 1.31 2.274.934.701-.377.821-1.405.267-2.298-.554-.892-1.572-1.31-2.273-.933Z" stroke="#4D74AD" stroke-width=".879" stroke-miterlimit="10" stroke-linecap="round" stroke-linejoin="round"/></g><defs><linearGradient id="b" x1="141.289" y1="81.298" x2="93.11" y2="106.814" gradientUnits="userSpaceOnUse"><stop stop-color="#54BEE8"/><stop offset="1" stop-color="#4D74AD"/></linearGradient><linearGradient id="c" x1="50.181" y1="71.109" x2="16.612" y2="90.519" gradientUnits="userSpaceOnUse"><stop stop-color="#54BEE8"/><stop offset="1" stop-color="#4D74AD"/></linearGradient><linearGradient id="d" x1="40.628" y1="55.132" x2="25.405" y2="61.44" gradientUnits="userSpaceOnUse"><stop stop-color="#54BEE8"/><stop offset="1" stop-color="#4D74AD"/></linearGradient><linearGradient id="e" x1="54.555" y1="114.966" x2="50.15" y2="117.515" gradientUnits="userSpaceOnUse"><stop stop-color="#54BEE8"/><stop offset="1" stop-color="#4D74AD"/></linearGradient><linearGradient id="f" x1="176.255" y1="187.592" x2="173.238" y2="189.977" gradientUnits="userSpaceOnUse"><stop stop-color="#54BEE8"/><stop offset="1" stop-color="#4D74AD"/></linearGradient><linearGradient id="g" x1="48.544" y1="210.908" x2="45.526" y2="213.294" gradientUnits="userSpaceOnUse"><stop stop-color="#54BEE8"/><stop offset="1" stop-color="#4D74AD"/></linearGradient><linearGradient id="h" x1="158.591" y1="41.008" x2="161.881" y2="41.538" gradientUnits="userSpaceOnUse"><stop stop-color="#54BEE8"/><stop offset="1" stop-color="#4D74AD"/></linearGradient><clipPath id="a"><path fill="#fff" transform="translate(4 12)" d="M0 0h206v206H0z"/></clipPath></defs></svg>